<svg xmlns="http://www.w3.org/2000/svg" viewBox="0 0 64 64" fill="none">
  <circle cx="32" cy="32" r="30" fill="#E8F0FE" stroke="#4A6FA5" stroke-width="2"/>
  <rect x="22" y="14" width="20" height="26" rx="3" fill="#fff" stroke="#4A6FA5" stroke-width="1.5"/>
  <line x1="26" y1="20" x2="38" y2="20" stroke="#B0C4DE" stroke-width="1.5" stroke-linecap="round"/>
  <line x1="26" y1="24" x2="36" y2="24" stroke="#B0C4DE" stroke-width="1.5" stroke-linecap="round"/>
  <line x1="26" y1="28" x2="34" y2="28" stroke="#B0C4DE" stroke-width="1.5" stroke-linecap="round"/>
  <line x1="26" y1="32" x2="38" y2="32" stroke="#B0C4DE" stroke-width="1.5" stroke-linecap="round"/>
  <!-- Stethoscope / medical cross -->
  <rect x="29" y="44" width="6" height="6" rx="1" fill="#4A6FA5"/>
  <rect x="31" y="42" width="2" height="10" rx="1" fill="#4A6FA5"/>
  <rect x="27" y="46" width="10" height="2" rx="1" fill="#4A6FA5"/>
  <!-- Shield for trust/responsibility -->
  <path d="M48 18 L48 26 Q48 32 44 34 L48 18Z" fill="#C0CFEA" opacity="0.5"/>
  <path d="M44 16 L48 18 L48 26 Q48 32 44 34 Q40 32 40 26 L40 18 Z" fill="none" stroke="#4A6FA5" stroke-width="1.2"/>
  <polyline points="42,24 43.5,26 46,22" fill="none" stroke="#4A6FA5" stroke-width="1.2" stroke-linecap="round" stroke-linejoin="round"/>
</svg>
