<svg id="Capa_1" enable-background="new 0 0 512 512" height="200" viewBox="0 0 497.94 497.94" width="200" xmlns="http://www.w3.org/2000/svg"><g><g><path d="m249.47 424.399c-95.207 0-172.664-77.457-172.664-172.664s77.457-172.664 172.664-172.664 172.664 77.457 172.664 172.664-77.457 172.664-172.664 172.664zm0-330.328c-86.937 0-157.664 70.728-157.664 157.664s70.728 157.664 157.664 157.664 157.664-70.728 157.664-157.664-70.727-157.664-157.664-157.664z" fill="#99e6fc"/></g><g><g id="XMLID_207_"><g><circle cx="249.47" cy="91.31" fill="#ade194" r="90.81"/></g></g><g id="XMLID_208_"><g><circle cx="407.13" cy="249.97" fill="#fef48b" r="90.81"/></g></g><g><path d="m437.45 232.434c-4.143 0-7.5-3.357-7.5-7.5v-8.801c0-4.143 3.357-7.5 7.5-7.5s7.5 3.357 7.5 7.5v8.801c0 4.143-3.357 7.5-7.5 7.5z" fill="#a79ba7"/></g><path d="m367.033 249.97c0-41.349 27.643-76.242 65.453-87.217-8.048-2.336-16.555-3.593-25.357-3.593-50.15 0-90.81 40.66-90.81 90.81s40.66 90.81 90.81 90.81c8.801 0 17.308-1.257 25.357-3.593-37.81-10.975-65.453-45.868-65.453-87.217z" fill="#fef056"/><g><path d="m376.812 232.434c-4.143 0-7.5-3.357-7.5-7.5v-8.801c0-4.143 3.357-7.5 7.5-7.5s7.5 3.357 7.5 7.5v8.801c0 4.143-3.358 7.5-7.5 7.5z" fill="#a79ba7"/></g><g id="XMLID_210_"><g><circle cx="249.47" cy="406.63" fill="#99e6fc" r="90.81"/></g></g><path d="m206.678 91.31c0-41.838 28.312-77.069 66.811-87.599-7.649-2.092-15.707-3.211-24.019-3.211-50.15 0-90.81 40.66-90.81 90.81s40.66 90.81 90.81 90.81c8.312 0 16.37-1.119 24.019-3.211-38.5-10.529-66.811-45.761-66.811-87.599z" fill="#97da7b"/><path d="m206.678 406.63c0-41.838 28.312-77.07 66.811-87.599-7.648-2.092-15.707-3.211-24.019-3.211-50.15 0-90.81 40.66-90.81 90.81s40.66 90.81 90.81 90.81c8.312 0 16.37-1.119 24.019-3.211-38.5-10.53-66.811-45.761-66.811-87.599z" fill="#62dbfb"/><g id="XMLID_211_"><g><circle cx="90.81" cy="249.97" fill="#fd8087" r="90.81"/></g><g fill="#fe646f"><path d="m50.713 249.97c0-41.349 27.643-76.242 65.453-87.217-8.048-2.336-16.555-3.593-25.356-3.593-50.15 0-90.81 40.66-90.81 90.81s40.66 90.81 90.81 90.81c8.801 0 17.308-1.257 25.356-3.593-37.81-10.975-65.453-45.868-65.453-87.217z"/><path d="m96.728 263.744h-7.57c-14.733 0-26.677 11.943-26.677 26.677v.982c0 3.18 2.578 5.758 5.758 5.758h49.407c3.18 0 5.758-2.578 5.758-5.758v-.982c.001-14.733-11.942-26.677-26.676-26.677z"/></g></g><g><path d="m249.47 159.62c-29.691 0-55.806-18.995-64.981-47.268-1.278-3.94.879-8.171 4.818-9.449 3.94-1.274 8.171.878 9.449 4.818 7.163 22.07 27.543 36.898 50.714 36.898s43.551-14.828 50.714-36.898c1.279-3.939 5.509-6.099 9.449-4.818 3.939 1.278 6.097 5.509 4.818 9.449-9.175 28.273-35.29 47.268-64.981 47.268z" fill="#a79ba7"/></g><g><path d="m219.151 66.054c-4.143 0-7.5-3.357-7.5-7.5v-8.8c0-4.143 3.357-7.5 7.5-7.5s7.5 3.357 7.5 7.5v8.8c0 4.143-3.358 7.5-7.5 7.5z" fill="#a79ba7"/></g><g><path d="m279.789 66.054c-4.143 0-7.5-3.357-7.5-7.5v-8.8c0-4.143 3.357-7.5 7.5-7.5s7.5 3.357 7.5 7.5v8.8c0 4.143-3.357 7.5-7.5 7.5z" fill="#a79ba7"/></g><g><path d="m219.151 399.37c-4.143 0-7.5-3.357-7.5-7.5v-8.801c0-4.143 3.357-7.5 7.5-7.5s7.5 3.357 7.5 7.5v8.801c0 4.143-3.358 7.5-7.5 7.5z" fill="#a79ba7"/></g><g><path d="m279.789 399.37c-4.143 0-7.5-3.357-7.5-7.5v-8.801c0-4.143 3.357-7.5 7.5-7.5s7.5 3.357 7.5 7.5v8.801c0 4.143-3.357 7.5-7.5 7.5z" fill="#a79ba7"/></g><g><path d="m457.706 289.893h-101.151c-4.143 0-7.5-3.357-7.5-7.5s3.357-7.5 7.5-7.5h101.151c4.143 0 7.5 3.357 7.5 7.5s-3.357 7.5-7.5 7.5z" fill="#a79ba7"/></g><g><path d="m199.763 397.196c-1.094 0-2.277-.264-3.526-.96-2.376-1.324-3.85-3.833-3.85-6.553 0-3.026 1.793-5.635 4.374-6.819 2.757-1.562 20.315-12.361 31.078-19.015 3.521-2.175 8.145-1.088 10.323 2.437 2.178 3.523 1.087 8.146-2.437 10.323 0 0-7.928 4.9-15.884 9.785-3.986 2.448-7.979 4.893-10.99 6.717-1.531.928-2.813 1.698-3.718 2.232-1.279.756-3.138 1.853-5.37 1.853z" fill="#a79ba7"/></g><g><path d="m299.177 397.196c-2.232 0-4.091-1.097-5.371-1.853-.905-.534-2.187-1.305-3.718-2.232-3.011-1.824-7.004-4.269-10.99-6.717-7.956-4.885-15.884-9.785-15.884-9.785-3.523-2.178-4.614-6.8-2.437-10.323 2.179-3.524 6.802-4.611 10.323-2.437 10.763 6.653 28.321 17.453 31.078 19.015 2.581 1.185 4.374 3.793 4.374 6.819 0 2.72-1.474 5.229-3.85 6.553-1.248.696-2.431.96-3.525.96z" fill="#a79ba7"/></g><g><path d="m58.213 240.79c-4.143 0-7.5-3.357-7.5-7.5v-13.429c0-4.143 3.357-7.5 7.5-7.5s7.5 3.357 7.5 7.5v13.429c0 4.143-3.357 7.5-7.5 7.5z" fill="#a79ba7"/></g><g><path d="m72.851 234.809c-1.198 0-2.413-.287-3.542-.894 0 0-6.985-3.752-13.97-7.535-3.504-1.897-7.007-3.803-9.635-5.249-5.789-3.188-8.186-4.506-8.243-8.96-.035-2.727 1.414-5.26 3.783-6.612 2.628-1.5 5.782-1.236 8.092.419 2.298 1.354 15.418 8.464 27.07 14.723 3.649 1.96 5.019 6.507 3.059 10.156-1.353 2.519-3.941 3.952-6.614 3.952z" fill="#a79ba7"/></g><g><path d="m123.405 240.79c-4.143 0-7.5-3.357-7.5-7.5v-13.429c0-4.143 3.357-7.5 7.5-7.5s7.5 3.357 7.5 7.5v13.429c0 4.143-3.358 7.5-7.5 7.5z" fill="#a79ba7"/></g><g><path d="m108.768 234.809c-2.674 0-5.261-1.433-6.614-3.952-1.96-3.649-.591-8.196 3.059-10.156 11.653-6.259 24.775-13.371 27.071-14.723 2.309-1.657 5.463-1.92 8.091-.419 2.369 1.353 3.818 3.886 3.783 6.612-.058 4.454-2.454 5.772-8.243 8.96-2.628 1.446-6.131 3.352-9.635 5.249-6.984 3.783-13.97 7.535-13.97 7.535-1.129.607-2.345.894-3.542.894z" fill="#a79ba7"/></g><g><path d="m283.592 455.401c-1.455 0-2.925-.423-4.217-1.304-8.849-6.031-19.189-9.219-29.905-9.219s-21.057 3.188-29.905 9.219c-3.422 2.334-8.087 1.45-10.421-1.974-2.333-3.422-1.449-8.088 1.974-10.421 11.349-7.735 24.611-11.824 38.353-11.824s27.004 4.089 38.353 11.824c3.423 2.333 4.307 6.999 1.974 10.421-1.453 2.131-3.808 3.278-6.206 3.278z" fill="#a79ba7"/></g></g></g></svg>