<svg xmlns="http://www.w3.org/2000/svg" viewBox="0 0 200 200" fill="none">
  <!-- Ninja/Sensei head -->
  <circle cx="100" cy="60" r="30" fill="#2d3748"/>
  <!-- Headband -->
  <rect x="68" y="50" width="64" height="10" rx="3" fill="#4a5568"/>
  <!-- Headband tail -->
  <path d="M132 55 Q140 48 148 58 Q142 52 135 57" fill="#4a5568"/>
  <!-- Eyes -->
  <ellipse cx="88" cy="58" rx="4" ry="2.5" fill="#e2e8f0"/>
  <ellipse cx="112" cy="58" rx="4" ry="2.5" fill="#e2e8f0"/>
  <!-- Body -->
  <path d="M75 88 Q100 82 125 88 L130 140 Q100 148 70 140 Z" fill="#2d3748"/>
  <!-- Arms holding document -->
  <path d="M75 95 Q55 110 65 130 L80 125" fill="#2d3748"/>
  <path d="M125 95 Q145 110 135 130 L120 125" fill="#2d3748"/>
  <!-- Document/Resume -->
  <rect x="78" y="108" width="44" height="56" rx="3" fill="#e2e8f0" stroke="#a0aec0" stroke-width="1.5"/>
  <!-- Document lines (resume content) -->
  <rect x="84" y="116" width="32" height="3" rx="1" fill="#a0aec0"/>
  <rect x="84" y="123" width="26" height="2" rx="1" fill="#cbd5e0"/>
  <rect x="84" y="129" width="30" height="2" rx="1" fill="#cbd5e0"/>
  <rect x="84" y="135" width="22" height="2" rx="1" fill="#cbd5e0"/>
  <rect x="84" y="141" width="28" height="2" rx="1" fill="#cbd5e0"/>
  <rect x="84" y="147" width="18" height="2" rx="1" fill="#cbd5e0"/>
  <!-- AI sparkle on document -->
  <path d="M114 110 L116 106 L118 110 L122 112 L118 114 L116 118 L114 114 L110 112 Z" fill="#ecc94b"/>
  <!-- Small sparkle -->
  <path d="M108 152 L109 150 L110 152 L112 153 L110 154 L109 156 L108 154 L106 153 Z" fill="#ecc94b"/>
</svg>
